<svg xmlns="http://www.w3.org/2000/svg" xmlns:xlink="http://www.w3.org/1999/xlink" version="1.1" class="marks" width="392" height="305" viewBox="0 0 392 305"><rect width="392" height="305" fill="#0f172a"/><g fill="none" stroke-miterlimit="10" transform="translate(5,5)"><g class="mark-group role-frame root" role="graphics-object" aria-roledescription="group mark container"><g transform="translate(0,0)"><path class="background" aria-hidden="true" d="M0,0h285v285h-285Z"/><g><g class="mark-arc role-mark layer_0_marks" role="graphics-object" aria-roledescription="arc mark container"><path aria-label="Direction: N; AvgPct: 43" role="graphics-symbol" aria-roledescription="arc mark" transform="translate(142.5,142.5)" d="M-74.932,-76.446A107.046,107.046,0,0,1,74.932,-76.446L0,0Z" fill="#22d3ee" stroke="white"/><path aria-label="Direction: E; AvgPct: 76.2" role="graphics-symbol" aria-roledescription="arc mark" transform="translate(142.5,142.5)" d="M101.765,-99.75A142.5,142.5,0,0,1,101.765,99.75L0,0Z" fill="#a78bfa" stroke="white"/><path aria-label="Direction: S; AvgPct: 65.4" role="graphics-symbol" aria-roledescription="arc mark" transform="translate(142.5,142.5)" d="M92.411,94.278A132.016,132.016,0,0,1,-92.411,94.278L0,0Z" fill="#f472b6" stroke="white"/><path aria-label="Direction: W; AvgPct: 41.2" role="graphics-symbol" aria-roledescription="arc mark" transform="translate(142.5,142.5)" d="M-74.829,73.347A104.782,104.782,0,0,1,-74.829,-73.347L0,0Z" fill="#fbbf24" stroke="white"/></g><g class="mark-text role-mark layer_1_marks" role="graphics-object" aria-roledescription="text mark container"><text aria-label="Direction: N; AvgPct: 43" role="graphics-symbol" aria-roledescription="text mark" text-anchor="middle" transform="translate(142.5,23.45371337447075)" font-family="ui-sans-serif, system-ui, -apple-system, sans-serif" font-size="11px" fill="black">N</text><text aria-label="Direction: E; AvgPct: 76.2" role="graphics-symbol" aria-roledescription="text mark" text-anchor="middle" transform="translate(300,145.5)" font-family="ui-sans-serif, system-ui, -apple-system, sans-serif" font-size="11px" fill="black">E</text><text aria-label="Direction: S; AvgPct: 65.4" role="graphics-symbol" aria-roledescription="text mark" text-anchor="middle" transform="translate(142.5,292.5159036589821)" font-family="ui-sans-serif, system-ui, -apple-system, sans-serif" font-size="11px" fill="black">S</text><text aria-label="Direction: W; AvgPct: 41.2" role="graphics-symbol" aria-roledescription="text mark" text-anchor="middle" transform="translate(22.718168161343115,145.50000000000003)" font-family="ui-sans-serif, system-ui, -apple-system, sans-serif" font-size="11px" fill="black">W</text></g><g class="mark-group role-legend" role="graphics-symbol" aria-roledescription="legend" aria-label="Symbol legend titled 'Direction' for fill color with 4 values: N, E, S, W"><g transform="translate(303,0)"><path class="background" aria-hidden="true" d="M0,0h79v77h-79Z" pointer-events="none"/><g><g class="mark-group role-legend-entry"><g transform="translate(0,16)"><path class="background" aria-hidden="true" d="M0,0h0v0h0Z" pointer-events="none"/><g><g class="mark-group role-scope" role="graphics-object" aria-roledescription="group mark container"><g transform="translate(0,0)"><path class="background" aria-hidden="true" d="M0,0h24v12.5h-24Z" pointer-events="none" opacity="1"/><g><g class="mark-symbol role-legend-symbol" pointer-events="none"><path transform="translate(6,6)" d="M5,0A5,5,0,1,1,-5,0A5,5,0,1,1,5,0" fill="#22d3ee" stroke="white" stroke-width="1.5" opacity="1"/></g><g class="mark-text role-legend-label" pointer-events="none"><text text-anchor="start" transform="translate(16,9)" font-family="ui-sans-serif, system-ui, -apple-system, sans-serif" font-size="10px" fill="#cbd5e1" opacity="1">N</text></g></g><path class="foreground" aria-hidden="true" d="" pointer-events="none" display="none"/></g><g transform="translate(0,16)"><path class="background" aria-hidden="true" d="M0,0h24v12.5h-24Z" pointer-events="none" opacity="1"/><g><g class="mark-symbol role-legend-symbol" pointer-events="none"><path transform="translate(6,6)" d="M5,0A5,5,0,1,1,-5,0A5,5,0,1,1,5,0" fill="#a78bfa" stroke="white" stroke-width="1.5" opacity="1"/></g><g class="mark-text role-legend-label" pointer-events="none"><text text-anchor="start" transform="translate(16,9)" font-family="ui-sans-serif, system-ui, -apple-system, sans-serif" font-size="10px" fill="#cbd5e1" opacity="1">E</text></g></g><path class="foreground" aria-hidden="true" d="" pointer-events="none" display="none"/></g><g transform="translate(0,32)"><path class="background" aria-hidden="true" d="M0,0h24v12.5h-24Z" pointer-events="none" opacity="1"/><g><g class="mark-symbol role-legend-symbol" pointer-events="none"><path transform="translate(6,6)" d="M5,0A5,5,0,1,1,-5,0A5,5,0,1,1,5,0" fill="#f472b6" stroke="white" stroke-width="1.5" opacity="1"/></g><g class="mark-text role-legend-label" pointer-events="none"><text text-anchor="start" transform="translate(16,9)" font-family="ui-sans-serif, system-ui, -apple-system, sans-serif" font-size="10px" fill="#cbd5e1" opacity="1">S</text></g></g><path class="foreground" aria-hidden="true" d="" pointer-events="none" display="none"/></g><g transform="translate(0,48)"><path class="background" aria-hidden="true" d="M0,0h24v12.5h-24Z" pointer-events="none" opacity="1"/><g><g class="mark-symbol role-legend-symbol" pointer-events="none"><path transform="translate(6,6)" d="M5,0A5,5,0,1,1,-5,0A5,5,0,1,1,5,0" fill="#fbbf24" stroke="white" stroke-width="1.5" opacity="1"/></g><g class="mark-text role-legend-label" pointer-events="none"><text text-anchor="start" transform="translate(16,9)" font-family="ui-sans-serif, system-ui, -apple-system, sans-serif" font-size="10px" fill="#cbd5e1" opacity="1">W</text></g></g><path class="foreground" aria-hidden="true" d="" pointer-events="none" display="none"/></g></g></g><path class="foreground" aria-hidden="true" d="" pointer-events="none" display="none"/></g></g><g class="mark-text role-legend-title" pointer-events="none"><text text-anchor="start" transform="translate(0,9)" font-family="ui-sans-serif, system-ui, -apple-system, sans-serif" font-size="11px" font-weight="bold" fill="#e2e8f0" opacity="1">Direction</text></g></g><path class="foreground" aria-hidden="true" d="" pointer-events="none" display="none"/></g></g></g><path class="foreground" aria-hidden="true" d="" display="none"/></g></g></g></svg>