<svg xmlns="http://www.w3.org/2000/svg" xmlns:xlink="http://www.w3.org/1999/xlink" version="1.1" class="marks" width="195.4" height="347" viewBox="0 0 195.4 347"><rect width="195.4" height="347" fill="#0f172a"/><g fill="none" stroke-miterlimit="10" transform="translate(43,10)"><g class="mark-group role-frame root" role="graphics-object" aria-roledescription="group mark container"><g transform="translate(0,0)"><path class="background" aria-hidden="true" d="M0.5,0.5h147.4v300h-147.4Z"/><g><g class="mark-group role-axis" aria-hidden="true"><g transform="translate(0.5,0.5)"><path class="background" aria-hidden="true" d="M0,0h0v0h0Z" pointer-events="none"/><g><g class="mark-rule role-axis-grid" pointer-events="none"><line transform="translate(0,300)" x2="147.4" y2="0" stroke="#1e293b" stroke-width="1" opacity="1"/><line transform="translate(0,270)" x2="147.4" y2="0" stroke="#1e293b" stroke-width="1" opacity="1"/><line transform="translate(0,240)" x2="147.4" y2="0" stroke="#1e293b" stroke-width="1" opacity="1"/><line transform="translate(0,210)" x2="147.4" y2="0" stroke="#1e293b" stroke-width="1" opacity="1"/><line transform="translate(0,180)" x2="147.4" y2="0" stroke="#1e293b" stroke-width="1" opacity="1"/><line transform="translate(0,150)" x2="147.4" y2="0" stroke="#1e293b" stroke-width="1" opacity="1"/><line transform="translate(0,120)" x2="147.4" y2="0" stroke="#1e293b" stroke-width="1" opacity="1"/><line transform="translate(0,90)" x2="147.4" y2="0" stroke="#1e293b" stroke-width="1" opacity="1"/><line transform="translate(0,60)" x2="147.4" y2="0" stroke="#1e293b" stroke-width="1" opacity="1"/><line transform="translate(0,30)" x2="147.4" y2="0" stroke="#1e293b" stroke-width="1" opacity="1"/><line transform="translate(0,0)" x2="147.4" y2="0" stroke="#1e293b" stroke-width="1" opacity="1"/></g></g><path class="foreground" aria-hidden="true" d="" pointer-events="none" display="none"/></g></g><g class="mark-group role-axis" role="graphics-symbol" aria-roledescription="axis" aria-label="X-axis titled 'Category' for a discrete scale with 2 values: A, B"><g transform="translate(0.5,300.5)"><path class="background" aria-hidden="true" d="M0,0h0v0h0Z" pointer-events="none"/><g><g class="mark-rule role-axis-tick" pointer-events="none"><line transform="translate(40,0)" x2="0" y2="5" stroke="#334155" stroke-width="1" opacity="1"/><line transform="translate(107,0)" x2="0" y2="5" stroke="#334155" stroke-width="1" opacity="1"/></g><g class="mark-text role-axis-label" pointer-events="none"><text text-anchor="middle" transform="translate(39.7,15)" font-family="ui-sans-serif, system-ui, -apple-system, sans-serif" font-size="10px" fill="#94a3b8" opacity="1">A</text><text text-anchor="middle" transform="translate(106.7,15)" font-family="ui-sans-serif, system-ui, -apple-system, sans-serif" font-size="10px" fill="#94a3b8" opacity="1">B</text></g><g class="mark-rule role-axis-domain" pointer-events="none"><line transform="translate(0,0)" x2="147.4" y2="0" stroke="#334155" stroke-width="1" opacity="1"/></g><g class="mark-text role-axis-title" pointer-events="none"><text text-anchor="middle" transform="translate(73.7,30)" font-family="ui-sans-serif, system-ui, -apple-system, sans-serif" font-size="11px" font-weight="bold" fill="#cbd5e1" opacity="1">Category</text></g></g><path class="foreground" aria-hidden="true" d="" pointer-events="none" display="none"/></g></g><g class="mark-group role-axis" role="graphics-symbol" aria-roledescription="axis" aria-label="Y-axis titled 'Value' for a linear scale with values from 10 to 30"><g transform="translate(0.5,0.5)"><path class="background" aria-hidden="true" d="M0,0h0v0h0Z" pointer-events="none"/><g><g class="mark-rule role-axis-tick" pointer-events="none"><line transform="translate(0,300)" x2="-5" y2="0" stroke="#334155" stroke-width="1" opacity="1"/><line transform="translate(0,270)" x2="-5" y2="0" stroke="#334155" stroke-width="1" opacity="1"/><line transform="translate(0,240)" x2="-5" y2="0" stroke="#334155" stroke-width="1" opacity="1"/><line transform="translate(0,210)" x2="-5" y2="0" stroke="#334155" stroke-width="1" opacity="1"/><line transform="translate(0,180)" x2="-5" y2="0" stroke="#334155" stroke-width="1" opacity="1"/><line transform="translate(0,150)" x2="-5" y2="0" stroke="#334155" stroke-width="1" opacity="1"/><line transform="translate(0,120)" x2="-5" y2="0" stroke="#334155" stroke-width="1" opacity="1"/><line transform="translate(0,90)" x2="-5" y2="0" stroke="#334155" stroke-width="1" opacity="1"/><line transform="translate(0,60)" x2="-5" y2="0" stroke="#334155" stroke-width="1" opacity="1"/><line transform="translate(0,30)" x2="-5" y2="0" stroke="#334155" stroke-width="1" opacity="1"/><line transform="translate(0,0)" x2="-5" y2="0" stroke="#334155" stroke-width="1" opacity="1"/></g><g class="mark-text role-axis-label" pointer-events="none"><text text-anchor="end" transform="translate(-7,303)" font-family="ui-sans-serif, system-ui, -apple-system, sans-serif" font-size="10px" fill="#94a3b8" opacity="1">10</text><text text-anchor="end" transform="translate(-7,273)" font-family="ui-sans-serif, system-ui, -apple-system, sans-serif" font-size="10px" fill="#94a3b8" opacity="1">12</text><text text-anchor="end" transform="translate(-7,243)" font-family="ui-sans-serif, system-ui, -apple-system, sans-serif" font-size="10px" fill="#94a3b8" opacity="1">14</text><text text-anchor="end" transform="translate(-7,213)" font-family="ui-sans-serif, system-ui, -apple-system, sans-serif" font-size="10px" fill="#94a3b8" opacity="1">16</text><text text-anchor="end" transform="translate(-7,183)" font-family="ui-sans-serif, system-ui, -apple-system, sans-serif" font-size="10px" fill="#94a3b8" opacity="1">18</text><text text-anchor="end" transform="translate(-7,153)" font-family="ui-sans-serif, system-ui, -apple-system, sans-serif" font-size="10px" fill="#94a3b8" opacity="1">20</text><text text-anchor="end" transform="translate(-7,123)" font-family="ui-sans-serif, system-ui, -apple-system, sans-serif" font-size="10px" fill="#94a3b8" opacity="1">22</text><text text-anchor="end" transform="translate(-7,93.00000000000001)" font-family="ui-sans-serif, system-ui, -apple-system, sans-serif" font-size="10px" fill="#94a3b8" opacity="1">24</text><text text-anchor="end" transform="translate(-7,62.999999999999986)" font-family="ui-sans-serif, system-ui, -apple-system, sans-serif" font-size="10px" fill="#94a3b8" opacity="1">26</text><text text-anchor="end" transform="translate(-7,32.99999999999999)" font-family="ui-sans-serif, system-ui, -apple-system, sans-serif" font-size="10px" fill="#94a3b8" opacity="1">28</text><text text-anchor="end" transform="translate(-7,3)" font-family="ui-sans-serif, system-ui, -apple-system, sans-serif" font-size="10px" fill="#94a3b8" opacity="1">30</text></g><g class="mark-rule role-axis-domain" pointer-events="none"><line transform="translate(0,300)" x2="0" y2="-300" stroke="#334155" stroke-width="1" opacity="1"/></g><g class="mark-text role-axis-title" pointer-events="none"><text text-anchor="middle" transform="translate(-27,150) rotate(-90) translate(0,-2)" font-family="ui-sans-serif, system-ui, -apple-system, sans-serif" font-size="11px" font-weight="bold" fill="#cbd5e1" opacity="1">Value</text></g></g><path class="foreground" aria-hidden="true" d="" pointer-events="none" display="none"/></g></g><g class="mark-symbol role-mark marks" role="graphics-object" aria-roledescription="symbol mark container"><path aria-label="Category: A; Value: 10" role="graphics-symbol" aria-roledescription="circle" transform="translate(50.52063849173333,300)" d="M5,0A5,5,0,1,1,-5,0A5,5,0,1,1,5,0" fill="#22d3ee" stroke-width="2" opacity="0.8"/><path aria-label="Category: A; Value: 15" role="graphics-symbol" aria-roledescription="circle" transform="translate(49.28211603326765,225)" d="M5,0A5,5,0,1,1,-5,0A5,5,0,1,1,5,0" fill="#22d3ee" stroke-width="2" opacity="0.8"/><path aria-label="Category: A; Value: 12" role="graphics-symbol" aria-roledescription="circle" transform="translate(27.38504193302885,270)" d="M5,0A5,5,0,1,1,-5,0A5,5,0,1,1,5,0" fill="#22d3ee" stroke-width="2" opacity="0.8"/><path aria-label="Category: A; Value: 18" role="graphics-symbol" aria-roledescription="circle" transform="translate(34.331332745885646,180)" d="M5,0A5,5,0,1,1,-5,0A5,5,0,1,1,5,0" fill="#22d3ee" stroke-width="2" opacity="0.8"/><path aria-label="Category: B; Value: 25" role="graphics-symbol" aria-roledescription="circle" transform="translate(106.95959656142574,75)" d="M5,0A5,5,0,1,1,-5,0A5,5,0,1,1,5,0" fill="#22d3ee" stroke-width="2" opacity="0.8"/><path aria-label="Category: B; Value: 30" role="graphics-symbol" aria-roledescription="circle" transform="translate(110.95574415876322,0)" d="M5,0A5,5,0,1,1,-5,0A5,5,0,1,1,5,0" fill="#22d3ee" stroke-width="2" opacity="0.8"/><path aria-label="Category: B; Value: 22" role="graphics-symbol" aria-roledescription="circle" transform="translate(121.41050839893157,120)" d="M5,0A5,5,0,1,1,-5,0A5,5,0,1,1,5,0" fill="#22d3ee" stroke-width="2" opacity="0.8"/><path aria-label="Category: B; Value: 28" role="graphics-symbol" aria-roledescription="circle" transform="translate(110.709277389537,29.999999999999993)" d="M5,0A5,5,0,1,1,-5,0A5,5,0,1,1,5,0" fill="#22d3ee" stroke-width="2" opacity="0.8"/></g></g><path class="foreground" aria-hidden="true" d="" display="none"/></g></g></g></svg>